<svg width="181" height="179" viewBox="0 0 181 179" fill="none" xmlns="http://www.w3.org/2000/svg">
<path d="M121.872 8.10758L119.037 16.0318L114.67 5.53158L110.995 4.21664L107.222 14.7622L109.934 15.7323L112.763 7.82307L117.12 18.3029L120.811 19.6232L124.583 9.07762L121.872 8.10758Z" fill="white"/>
<path d="M144.365 24.04L145.817 22.1094L136.356 14.991L129.622 23.9408L131.924 25.6723L134.03 22.8723L140.423 27.682L141.885 25.7387L135.493 20.9289L137.205 18.6531L144.365 24.04Z" fill="white"/>
<path d="M162.976 41.3605L154.83 30.2711L152.883 31.7014L156.103 36.0856L149.024 41.2859L150.729 43.607L157.808 38.4066L161.029 42.7909L162.976 41.3605Z" fill="white"/>
<path d="M176.834 84.1618L176.374 80.3012L167.97 76.5824L175.263 70.9912L174.803 67.1305L163.682 68.4571L164.023 71.3168L171.649 70.4072L164.574 75.9401L164.821 78.0054L172.998 81.719L165.372 82.6287L165.713 85.4884L176.834 84.1618Z" fill="white"/>
<path d="M162.905 107.899L162.168 110.996L174.405 107.957L175.305 104.174L165.748 95.9609L165.014 99.0427L167.055 100.762L165.502 107.284L162.905 107.899ZM168.893 102.302L172.783 105.58L167.836 106.738L168.893 102.302Z" fill="white"/>
<path d="M158.081 134.951C160.21 136.254 162.499 135.61 163.826 133.44L168.42 125.934L158.867 120.088L157.364 122.544L159.916 124.106L157.494 128.064L153.998 128.044L152.227 130.937L156.143 130.914C155.863 132.506 156.525 133.999 158.081 134.951ZM164.856 127.129L162.183 131.496C161.732 132.233 161.031 133.38 159.584 132.495C158.151 131.618 158.853 130.471 159.304 129.734L161.976 125.367L164.856 127.129Z" fill="white"/>
<path d="M142.315 157.157L145.638 154.323L147.943 144.722L151.712 149.141L153.903 147.272L146.635 138.751L144.444 140.62L145.835 142.251L144.848 146.395L138.077 146.051L135.046 148.636L144.247 148.969L142.315 157.157Z" fill="white"/>
<path d="M119.532 166.814L120.423 168.922L131.328 164.31L126.966 153.994L116.061 158.606L116.952 160.713L125.204 157.223L126.089 159.316L117.837 162.806L118.647 164.722L126.899 161.232L127.784 163.324L119.532 166.814Z" fill="white"/>
<path d="M95.1612 174.103L108.841 172.622L108.581 170.22L103.173 170.806L102.227 162.073L99.3635 162.383L100.309 171.116L94.901 171.701L95.1612 174.103Z" fill="white"/>
<path d="M73.8422 172.371L82.4778 174.064L84.6326 163.074L81.8064 162.519L81.2307 165.456L75.4213 164.317C72.9249 163.827 70.9056 165.062 70.4254 167.511C69.9452 169.96 71.3457 171.882 73.8422 172.371ZM75.7416 166.841L80.7659 167.826L80.1164 171.139L75.0921 170.154C74.2442 169.988 72.9253 169.73 73.2516 168.065C73.5748 166.417 74.8937 166.675 75.7416 166.841Z" fill="white"/>
<path d="M59.4216 158.731L55.3925 166.536L57.9516 167.857L63.089 157.905L52.8524 152.621L51.7442 154.768L59.4216 158.731Z" fill="white"/>
<path d="M36.678 139.657L34.41 137.422L30.6748 149.465L33.4443 152.194L45.4195 148.27L43.1629 146.047L40.6349 146.903L35.8595 142.197L36.678 139.657ZM38.3665 147.678L33.5474 149.308L35.1183 144.477L38.3665 147.678Z" fill="white"/>
<path d="M23.3182 132.582C26.6451 130.9 27.5199 128.091 25.2963 123.693C23.2822 119.709 20.7437 118.482 17.7151 119.691L19.0362 122.304C20.7868 121.724 22.0646 122.655 23.1402 124.783C24.4541 127.382 24.0748 128.972 22.0187 130.011C19.9768 131.044 18.4928 130.414 17.1717 127.801C16.0888 125.659 16.089 124.099 17.5798 123.04L16.2587 120.427C13.5043 122.143 13.0015 124.907 15.0156 128.891C17.2391 133.289 20.0055 134.256 23.3182 132.582Z" fill="white"/>
<path d="M7.77009 98.3133L5.51556 98.7032L7.53343 110.37L18.5696 108.461L16.5517 96.7944L14.2972 97.1844L15.8242 106.013L13.5855 106.401L12.0584 97.5716L10.0089 97.9261L11.5359 106.755L9.29712 107.142L7.77009 98.3133Z" fill="white"/>
<path d="M20.7822 60.1763L18.568 61.3131C17.8967 60.5258 16.9393 59.949 15.7208 59.5572C12.2022 58.4258 9.60112 59.8247 8.09747 64.5009C6.58893 69.1923 7.87686 71.825 11.4107 72.9613C14.9597 74.1025 17.5559 72.7188 19.0644 68.0274C19.5689 66.4585 19.7622 65.1257 19.659 63.9832L22.0947 62.7328L20.7822 60.1763ZM12.2923 70.2195C10.1141 69.5192 9.47669 68.1041 10.3975 65.2405C11.3183 62.3769 12.6762 61.6035 14.8392 62.299C17.0173 62.9994 17.6803 64.4394 16.7644 67.2878C15.8485 70.1362 14.4857 70.9248 12.2923 70.2195Z" fill="white"/>
<path d="M25.1118 36.408L23.246 35.0838L16.3932 44.7391L25.5266 51.2215L32.3794 41.5661L30.5136 40.2419L25.3277 47.5486L23.4749 46.2336L28.6608 38.9269L26.9646 37.723L21.7787 45.0298L19.926 43.7148L25.1118 36.408Z" fill="white"/>
<path d="M41.8693 20.344L40.4391 18.5581L31.1975 25.9594L38.1987 34.7014L47.4403 27.3002L46.01 25.5143L39.0164 31.1153L37.5962 29.3419L44.5898 23.7409L43.2896 22.1174L36.296 27.7184L34.8757 25.945L41.8693 20.344Z" fill="white"/>
<path d="M64.0986 11.9403C64.3885 11.1535 64.4021 10.3217 64.1124 9.59312C63.5036 8.06172 62.2962 7.14707 59.9322 8.08697L50.7735 11.7283L54.9114 22.1359L64.4269 18.3527C66.791 17.4128 67.3085 15.7263 66.6109 13.9718C66.1321 12.7675 65.2094 12.1357 64.0986 11.9403ZM54.2182 12.5971L59.7343 10.404C60.4628 10.1144 61.117 9.85429 61.5426 10.9248C61.9741 12.0101 61.3199 12.2702 60.6063 12.554L60.5914 12.5599L55.0754 14.753L54.2182 12.5971ZM62.9511 16.5461L56.766 19.0052L55.8911 16.8048L62.0762 14.3457C62.7899 14.0619 63.4441 13.8018 63.8815 14.9021C64.3189 16.0023 63.6647 16.2624 62.9511 16.5461Z" fill="white"/>
</svg>
