<svg width="22" height="24" viewBox="0 0 22 24" fill="none" xmlns="http://www.w3.org/2000/svg">
<path d="M1.5603 23.2497C1.31166 23.2497 1.07321 23.1509 0.89739 22.9751C0.721575 22.7993 0.622803 22.5609 0.622803 22.3122V1.68722C0.622831 1.52431 0.66531 1.36422 0.746053 1.22272C0.826796 1.08123 0.943017 0.963221 1.08326 0.880325C1.2235 0.797428 1.38292 0.752507 1.54581 0.74999C1.70871 0.747472 1.86944 0.787445 2.01218 0.865968L20.7622 11.1785C20.9092 11.2594 21.0317 11.3783 21.1171 11.5227C21.2025 11.6672 21.2475 11.8319 21.2475 11.9997C21.2475 12.1675 21.2025 12.3322 21.1171 12.4767C21.0317 12.6211 20.9092 12.74 20.7622 12.821L2.01218 23.1335C1.87376 23.2097 1.71832 23.2497 1.5603 23.2497Z" fill="white"/>
</svg>
