<svg width="28" height="18" viewBox="0 0 28 18" fill="none" xmlns="http://www.w3.org/2000/svg">
<path fill-rule="evenodd" clip-rule="evenodd" d="M27.125 9.00002C27.125 8.75138 27.0262 8.51293 26.8504 8.33711C26.6746 8.1613 26.4361 8.06252 26.1875 8.06252H4.07562L9.97625 2.16377C10.1523 1.98774 10.2512 1.74898 10.2512 1.50002C10.2512 1.25107 10.1523 1.01231 9.97625 0.836274C9.80021 0.660237 9.56145 0.56134 9.3125 0.56134C9.06355 0.56134 8.82479 0.660237 8.64875 0.836274L1.14875 8.33627C1.06144 8.42336 0.992176 8.52681 0.944914 8.64071C0.897652 8.75461 0.873325 8.87671 0.873325 9.00002C0.873325 9.12334 0.897652 9.24544 0.944914 9.35934C0.992176 9.47323 1.06144 9.57669 1.14875 9.66377L8.64875 17.1638C8.82479 17.3398 9.06355 17.4387 9.3125 17.4387C9.56145 17.4387 9.80021 17.3398 9.97625 17.1638C10.1523 16.9877 10.2512 16.749 10.2512 16.5C10.2512 16.2511 10.1523 16.0123 9.97625 15.8363L4.07562 9.93752H26.1875C26.4361 9.93752 26.6746 9.83875 26.8504 9.66294C27.0262 9.48712 27.125 9.24866 27.125 9.00002Z" fill="white"/>
</svg>
