<svg width="28" height="18" viewBox="0 0 28 18" fill="none" xmlns="http://www.w3.org/2000/svg">
<path fill-rule="evenodd" clip-rule="evenodd" d="M0.875 9.00002C0.875 8.75138 0.973772 8.51293 1.14959 8.33711C1.3254 8.1613 1.56386 8.06252 1.8125 8.06252H23.9244L18.0238 2.16377C17.8477 1.98774 17.7488 1.74898 17.7488 1.50002C17.7488 1.25107 17.8477 1.01231 18.0238 0.836274C18.1998 0.660237 18.4385 0.56134 18.6875 0.56134C18.9365 0.56134 19.1752 0.660237 19.3512 0.836274L26.8512 8.33627C26.9386 8.42336 27.0078 8.52681 27.0551 8.64071C27.1023 8.75461 27.1267 8.87671 27.1267 9.00002C27.1267 9.12334 27.1023 9.24544 27.0551 9.35934C27.0078 9.47323 26.9386 9.57669 26.8512 9.66377L19.3512 17.1638C19.1752 17.3398 18.9365 17.4387 18.6875 17.4387C18.4385 17.4387 18.1998 17.3398 18.0238 17.1638C17.8477 16.9877 17.7488 16.749 17.7488 16.5C17.7488 16.2511 17.8477 16.0123 18.0238 15.8363L23.9244 9.93752H1.8125C1.56386 9.93752 1.3254 9.83875 1.14959 9.66294C0.973772 9.48712 0.875 9.24866 0.875 9.00002Z" fill="white"/>
</svg>
