<svg width="18" height="20" viewBox="0 0 18 20" fill="none" xmlns="http://www.w3.org/2000/svg">
<path d="M16.59 4.69C15.5932 4.47079 14.6914 3.94144 14.0141 3.17789C13.3368 2.41435 12.9188 1.45587 12.82 0.44V0H9.37002V13.67C9.37072 14.2766 9.18056 14.868 8.82646 15.3604C8.47237 15.8529 7.9723 16.2215 7.39709 16.414C6.82187 16.6065 6.20068 16.6131 5.6215 16.4329C5.04232 16.2527 4.53452 15.8948 4.17002 15.41C3.84347 14.9808 3.64351 14.4689 3.59275 13.932C3.54199 13.3951 3.64247 12.8548 3.8828 12.372C4.12314 11.8892 4.49375 11.4834 4.95274 11.2003C5.41172 10.9172 5.94075 10.7681 6.48002 10.77C6.77826 10.7683 7.07502 10.8121 7.36002 10.9V7.4C7.02836 7.35893 6.69413 7.34222 6.36002 7.35C5.12933 7.38288 3.93494 7.77393 2.92311 8.47527C1.91127 9.1766 1.12591 10.1578 0.663199 11.2986C0.200485 12.4395 0.0805013 13.6905 0.31794 14.8986C0.555378 16.1066 1.13993 17.2191 2.00002 18.1C2.88151 18.9962 4.00952 19.6101 5.24072 19.8638C6.47192 20.1175 7.75074 19.9994 8.91468 19.5246C10.0786 19.0498 11.0752 18.2397 11.7776 17.1973C12.4801 16.1548 12.8569 14.9271 12.86 13.67V6.67C14.2515 7.66395 15.92 8.19565 17.63 8.19V4.79C17.2941 4.79139 16.959 4.75787 16.63 4.69H16.59Z" fill="#818698"/>
</svg>
